<svg width="717" height="239" viewBox="0 0 717 239" fill="none" xmlns="http://www.w3.org/2000/svg">
<g filter="url(#filter0_i_2_5687)">
<rect x="0.439453" width="716.561" height="238.854" rx="20" fill="#712EC4"/>
<path d="M525.917 28.6624H687.115C690.428 28.6624 693.115 31.3487 693.115 34.6624V189.86C693.115 193.174 690.428 195.86 687.115 195.86H525.917V28.6624Z" fill="black" fill-opacity="0.1"/>
<path d="M120.828 140.102V81.9201H131.368V106.551H158.328V81.9201H168.896V140.102H158.328V115.386H131.368V140.102H120.828ZM198.939 140.954C194.677 140.954 190.984 140.017 187.859 138.142C184.734 136.267 182.31 133.644 180.586 130.272C178.882 126.901 178.029 122.962 178.029 118.454C178.029 113.947 178.882 109.998 180.586 106.608C182.31 103.217 184.734 100.585 187.859 98.7099C190.984 96.8349 194.677 95.8974 198.939 95.8974C203.2 95.8974 206.893 96.8349 210.018 98.7099C213.143 100.585 215.558 103.217 217.262 106.608C218.986 109.998 219.848 113.947 219.848 118.454C219.848 122.962 218.986 126.901 217.262 130.272C215.558 133.644 213.143 136.267 210.018 138.142C206.893 140.017 203.2 140.954 198.939 140.954ZM198.995 132.716C201.306 132.716 203.238 132.081 204.791 130.812C206.344 129.524 207.499 127.801 208.257 125.642C209.033 123.483 209.421 121.077 209.421 118.426C209.421 115.755 209.033 113.341 208.257 111.181C207.499 109.003 206.344 107.27 204.791 105.983C203.238 104.695 201.306 104.051 198.995 104.051C196.628 104.051 194.658 104.695 193.086 105.983C191.533 107.27 190.368 109.003 189.592 111.181C188.834 113.341 188.456 115.755 188.456 118.426C188.456 121.077 188.834 123.483 189.592 125.642C190.368 127.801 191.533 129.524 193.086 130.812C194.658 132.081 196.628 132.716 198.995 132.716ZM228.576 140.102V96.4655H238.406V103.88H238.917C239.826 101.38 241.332 99.4296 243.434 98.028C245.537 96.6076 248.046 95.8974 250.963 95.8974C253.917 95.8974 256.408 96.6171 258.434 98.0565C260.48 99.4769 261.919 101.418 262.752 103.88H263.207C264.173 101.456 265.802 99.5243 268.093 98.0849C270.404 96.6265 273.141 95.8974 276.304 95.8974C280.319 95.8974 283.595 97.1663 286.133 99.7042C288.671 102.242 289.94 105.945 289.94 110.812V140.102H279.627V112.403C279.627 109.695 278.908 107.716 277.468 106.466C276.029 105.197 274.268 104.562 272.184 104.562C269.703 104.562 267.762 105.339 266.36 106.892C264.978 108.426 264.287 110.424 264.287 112.886V140.102H254.201V111.977C254.201 109.723 253.52 107.924 252.156 106.579C250.811 105.234 249.05 104.562 246.872 104.562C245.395 104.562 244.05 104.941 242.838 105.699C241.626 106.437 240.66 107.488 239.94 108.852C239.22 110.197 238.86 111.769 238.86 113.568V140.102H228.576ZM319.691 140.954C315.316 140.954 311.538 140.045 308.356 138.227C305.193 136.39 302.76 133.795 301.055 130.443C299.35 127.072 298.498 123.104 298.498 118.539C298.498 114.051 299.35 110.111 301.055 106.721C302.779 103.312 305.184 100.661 308.271 98.7667C311.358 96.8538 314.985 95.8974 319.152 95.8974C321.841 95.8974 324.379 96.333 326.765 97.2042C329.171 98.0565 331.292 99.3822 333.129 101.181C334.985 102.981 336.443 105.272 337.504 108.056C338.564 110.822 339.095 114.117 339.095 117.943V121.096H303.328V114.164H329.237C329.218 112.195 328.792 110.443 327.958 108.909C327.125 107.356 325.96 106.134 324.464 105.244C322.987 104.354 321.263 103.909 319.294 103.909C317.191 103.909 315.345 104.42 313.754 105.443C312.163 106.447 310.922 107.772 310.032 109.42C309.161 111.049 308.716 112.839 308.697 114.789V120.841C308.697 123.378 309.161 125.556 310.089 127.375C311.017 129.174 312.314 130.556 313.981 131.522C315.648 132.469 317.599 132.943 319.833 132.943C321.33 132.943 322.684 132.734 323.896 132.318C325.108 131.882 326.159 131.248 327.049 130.414C327.939 129.581 328.612 128.549 329.066 127.318L338.669 128.397C338.063 130.935 336.907 133.151 335.203 135.045C333.517 136.92 331.358 138.378 328.725 139.42C326.093 140.443 323.082 140.954 319.691 140.954Z" fill="white"/>
<path fill-rule="evenodd" clip-rule="evenodd" d="M589.418 77.8323C591.284 75.9667 594.308 75.9667 596.174 77.8323L634.391 116.049C636.256 117.915 636.256 120.939 634.391 122.805L596.174 161.021C594.308 162.887 591.284 162.887 589.418 161.021C587.553 159.156 587.553 156.131 589.418 154.266L624.257 119.427L589.418 84.5881C587.553 82.7225 587.553 79.6978 589.418 77.8323Z" fill="white"/>
</g>
<defs>
<filter id="filter0_i_2_5687" x="0.439453" y="0" width="716.561" height="238.854" filterUnits="userSpaceOnUse" color-interpolation-filters="sRGB">
<feFlood flood-opacity="0" result="BackgroundImageFix"/>
<feBlend mode="normal" in="SourceGraphic" in2="BackgroundImageFix" result="shape"/>
<feColorMatrix in="SourceAlpha" type="matrix" values="0 0 0 0 0 0 0 0 0 0 0 0 0 0 0 0 0 0 127 0" result="hardAlpha"/>
<feOffset dy="-20"/>
<feComposite in2="hardAlpha" operator="arithmetic" k2="-1" k3="1"/>
<feColorMatrix type="matrix" values="0 0 0 0 0 0 0 0 0 0 0 0 0 0 0 0 0 0 0.1 0"/>
<feBlend mode="normal" in2="shape" result="effect1_innerShadow_2_5687"/>
</filter>
</defs>
</svg>
