<svg width="717" height="239" viewBox="0 0 717 239" fill="none" xmlns="http://www.w3.org/2000/svg">
<rect width="716.561" height="238.854" rx="20" fill="#8232E9"/>
<path d="M242.392 145V86.8182H251.17V112.102H280.176V86.8182H288.983V145H280.176V119.631H251.17V145H242.392ZM319.466 145.881C315.375 145.881 311.805 144.943 308.756 143.068C305.706 141.193 303.339 138.57 301.653 135.199C299.968 131.828 299.125 127.888 299.125 123.381C299.125 118.854 299.968 114.896 301.653 111.506C303.339 108.116 305.706 105.483 308.756 103.608C311.805 101.733 315.375 100.795 319.466 100.795C323.557 100.795 327.127 101.733 330.176 103.608C333.225 105.483 335.593 108.116 337.278 111.506C338.964 114.896 339.807 118.854 339.807 123.381C339.807 127.888 338.964 131.828 337.278 135.199C335.593 138.57 333.225 141.193 330.176 143.068C327.127 144.943 323.557 145.881 319.466 145.881ZM319.494 138.75C322.146 138.75 324.343 138.049 326.085 136.648C327.828 135.246 329.116 133.381 329.949 131.051C330.801 128.722 331.227 126.155 331.227 123.352C331.227 120.568 330.801 118.011 329.949 115.682C329.116 113.333 327.828 111.449 326.085 110.028C324.343 108.608 322.146 107.898 319.494 107.898C316.824 107.898 314.608 108.608 312.847 110.028C311.104 111.449 309.807 113.333 308.955 115.682C308.121 118.011 307.705 120.568 307.705 123.352C307.705 126.155 308.121 128.722 308.955 131.051C309.807 133.381 311.104 135.246 312.847 136.648C314.608 138.049 316.824 138.75 319.494 138.75ZM349.288 145V101.364H357.442V108.466H357.982C358.891 106.061 360.377 104.186 362.442 102.841C364.506 101.477 366.978 100.795 369.857 100.795C372.773 100.795 375.216 101.477 377.186 102.841C379.175 104.205 380.643 106.08 381.589 108.466H382.044C383.086 106.136 384.743 104.28 387.016 102.898C389.288 101.496 391.997 100.795 395.141 100.795C399.099 100.795 402.328 102.036 404.828 104.517C407.347 106.998 408.607 110.739 408.607 115.739V145H400.112V116.534C400.112 113.58 399.307 111.439 397.697 110.114C396.088 108.788 394.165 108.125 391.93 108.125C389.165 108.125 387.016 108.977 385.482 110.682C383.947 112.367 383.18 114.536 383.18 117.188V145H374.714V115.994C374.714 113.627 373.976 111.723 372.499 110.284C371.021 108.845 369.099 108.125 366.732 108.125C365.122 108.125 363.635 108.551 362.271 109.403C360.927 110.237 359.838 111.402 359.004 112.898C358.19 114.394 357.783 116.127 357.783 118.097V145H349.288ZM438.798 145.881C434.499 145.881 430.796 144.962 427.69 143.125C424.603 141.269 422.217 138.665 420.531 135.312C418.865 131.941 418.031 127.992 418.031 123.466C418.031 118.996 418.865 115.057 420.531 111.648C422.217 108.239 424.565 105.578 427.577 103.665C430.607 101.752 434.149 100.795 438.202 100.795C440.664 100.795 443.05 101.203 445.361 102.017C447.671 102.831 449.745 104.11 451.582 105.852C453.42 107.595 454.868 109.858 455.929 112.642C456.99 115.407 457.52 118.769 457.52 122.727V125.739H422.832V119.375H449.196C449.196 117.14 448.741 115.161 447.832 113.438C446.923 111.695 445.645 110.322 443.997 109.318C442.368 108.314 440.455 107.812 438.259 107.812C435.872 107.812 433.789 108.4 432.009 109.574C430.247 110.729 428.884 112.244 427.918 114.119C426.971 115.975 426.497 117.992 426.497 120.17V125.142C426.497 128.059 427.009 130.54 428.031 132.585C429.073 134.631 430.522 136.193 432.378 137.273C434.234 138.333 436.402 138.864 438.884 138.864C440.493 138.864 441.961 138.636 443.287 138.182C444.613 137.708 445.759 137.008 446.724 136.08C447.69 135.152 448.429 134.006 448.94 132.642L456.98 134.091C456.336 136.458 455.181 138.532 453.514 140.312C451.866 142.074 449.793 143.447 447.293 144.432C444.812 145.398 441.98 145.881 438.798 145.881Z" fill="white"/>
</svg>
