<svg width="717" height="240" viewBox="0 0 717 240" fill="none" xmlns="http://www.w3.org/2000/svg">
<g filter="url(#filter0_i_2_5812)">
<rect x="0.439453" y="0.356689" width="716.561" height="238.854" rx="20" fill="#712EC4"/>
<path d="M525.917 29.0191H687.115C690.428 29.0191 693.115 31.7054 693.115 35.0191V190.217C693.115 193.53 690.428 196.217 687.115 196.217H525.917V29.0191Z" fill="black" fill-opacity="0.1"/>
<path d="M58.7259 87.0538H71.6236L88.8963 129.213H89.5782L106.851 87.0538H119.749V145.236H109.635V105.264H109.095L93.0157 145.065H85.4588L69.3793 105.179H68.8395V145.236H58.7259V87.0538ZM130.771 145.236V101.599H141.055V145.236H130.771ZM135.942 95.4061C134.313 95.4061 132.911 94.8663 131.737 93.7868C130.563 92.6883 129.976 91.372 129.976 89.8379C129.976 88.2849 130.563 86.9686 131.737 85.8891C132.911 84.7906 134.313 84.2413 135.942 84.2413C137.59 84.2413 138.991 84.7906 140.146 85.8891C141.321 86.9686 141.908 88.2849 141.908 89.8379C141.908 91.372 141.321 92.6883 140.146 93.7868C138.991 94.8663 137.59 95.4061 135.942 95.4061ZM167.824 146.003C164.396 146.003 161.328 145.122 158.619 143.361C155.911 141.599 153.771 139.042 152.199 135.69C150.627 132.338 149.841 128.266 149.841 123.474C149.841 118.626 150.636 114.535 152.227 111.202C153.837 107.849 156.006 105.321 158.733 103.616C161.46 101.893 164.5 101.031 167.852 101.031C170.409 101.031 172.511 101.467 174.159 102.338C175.807 103.19 177.114 104.222 178.08 105.435C179.045 106.628 179.794 107.755 180.324 108.815H180.75V87.0538H191.063V145.236H180.949V138.361H180.324C179.794 139.421 179.027 140.548 178.023 141.741C177.019 142.916 175.693 143.919 174.045 144.753C172.398 145.586 170.324 146.003 167.824 146.003ZM170.693 137.565C172.871 137.565 174.727 136.978 176.261 135.804C177.795 134.611 178.96 132.953 179.756 130.832C180.551 128.711 180.949 126.239 180.949 123.417C180.949 120.596 180.551 118.143 179.756 116.06C178.979 113.976 177.824 112.357 176.29 111.202C174.775 110.046 172.909 109.469 170.693 109.469C168.402 109.469 166.489 110.065 164.955 111.258C163.42 112.452 162.265 114.099 161.489 116.202C160.712 118.304 160.324 120.709 160.324 123.417C160.324 126.145 160.712 128.578 161.489 130.719C162.284 132.84 163.449 134.516 164.983 135.747C166.536 136.959 168.439 137.565 170.693 137.565ZM218.215 146.003C214.786 146.003 211.718 145.122 209.01 143.361C206.302 141.599 204.161 139.042 202.59 135.69C201.018 132.338 200.232 128.266 200.232 123.474C200.232 118.626 201.027 114.535 202.618 111.202C204.228 107.849 206.396 105.321 209.124 103.616C211.851 101.893 214.891 101.031 218.243 101.031C220.8 101.031 222.902 101.467 224.55 102.338C226.197 103.19 227.504 104.222 228.47 105.435C229.436 106.628 230.184 107.755 230.715 108.815H231.141V87.0538H241.453V145.236H231.34V138.361H230.715C230.184 139.421 229.417 140.548 228.413 141.741C227.41 142.916 226.084 143.919 224.436 144.753C222.788 145.586 220.715 146.003 218.215 146.003ZM221.084 137.565C223.262 137.565 225.118 136.978 226.652 135.804C228.186 134.611 229.351 132.953 230.146 130.832C230.942 128.711 231.34 126.239 231.34 123.417C231.34 120.596 230.942 118.143 230.146 116.06C229.37 113.976 228.215 112.357 226.68 111.202C225.165 110.046 223.3 109.469 221.084 109.469C218.792 109.469 216.879 110.065 215.345 111.258C213.811 112.452 212.656 114.099 211.879 116.202C211.103 118.304 210.715 120.709 210.715 123.417C210.715 126.145 211.103 128.578 211.879 130.719C212.675 132.84 213.84 134.516 215.374 135.747C216.927 136.959 218.83 137.565 221.084 137.565ZM262.696 87.0538V145.236H252.412V87.0538H262.696ZM292.59 146.088C288.215 146.088 284.436 145.179 281.254 143.361C278.091 141.524 275.658 138.929 273.953 135.577C272.249 132.205 271.396 128.238 271.396 123.673C271.396 119.185 272.249 115.245 273.953 111.855C275.677 108.446 278.082 105.794 281.169 103.9C284.256 101.988 287.883 101.031 292.05 101.031C294.739 101.031 297.277 101.467 299.663 102.338C302.069 103.19 304.19 104.516 306.027 106.315C307.883 108.114 309.341 110.406 310.402 113.19C311.463 115.955 311.993 119.251 311.993 123.077V126.23H276.226V119.298H302.135C302.116 117.328 301.69 115.577 300.857 114.042C300.023 112.489 298.858 111.268 297.362 110.378C295.885 109.488 294.161 109.042 292.192 109.042C290.09 109.042 288.243 109.554 286.652 110.577C285.061 111.58 283.821 112.906 282.93 114.554C282.059 116.183 281.614 117.972 281.595 119.923V125.974C281.595 128.512 282.059 130.69 282.987 132.508C283.915 134.308 285.213 135.69 286.879 136.656C288.546 137.603 290.497 138.077 292.732 138.077C294.228 138.077 295.582 137.868 296.794 137.452C298.006 137.016 299.057 136.381 299.947 135.548C300.838 134.715 301.51 133.683 301.965 132.452L311.567 133.531C310.961 136.069 309.805 138.285 308.101 140.179C306.415 142.054 304.256 143.512 301.624 144.554C298.991 145.577 295.98 146.088 292.59 146.088ZM355.182 113.133L345.807 114.156C345.542 113.209 345.078 112.319 344.415 111.486C343.771 110.652 342.9 109.98 341.801 109.469C340.703 108.957 339.358 108.702 337.767 108.702C335.627 108.702 333.828 109.166 332.369 110.094C330.93 111.022 330.22 112.224 330.239 113.702C330.22 114.971 330.684 116.003 331.631 116.798C332.597 117.594 334.188 118.247 336.403 118.758L343.847 120.349C347.975 121.239 351.044 122.65 353.051 124.582C355.078 126.514 356.1 129.042 356.119 132.167C356.1 134.914 355.295 137.338 353.705 139.44C352.133 141.524 349.945 143.152 347.142 144.327C344.339 145.501 341.119 146.088 337.483 146.088C332.142 146.088 327.843 144.971 324.585 142.736C321.328 140.482 319.386 137.347 318.761 133.332L328.79 132.366C329.244 134.336 330.21 135.823 331.688 136.827C333.165 137.83 335.087 138.332 337.455 138.332C339.898 138.332 341.858 137.83 343.335 136.827C344.831 135.823 345.58 134.582 345.58 133.105C345.58 131.855 345.097 130.823 344.131 130.008C343.184 129.194 341.706 128.569 339.699 128.133L332.256 126.571C328.07 125.7 324.974 124.232 322.966 122.167C320.958 120.084 319.964 117.452 319.983 114.27C319.964 111.58 320.693 109.251 322.17 107.281C323.667 105.292 325.741 103.758 328.392 102.679C331.063 101.58 334.14 101.031 337.625 101.031C342.739 101.031 346.763 102.12 349.699 104.298C352.653 106.476 354.481 109.421 355.182 113.133ZM383.918 146.088C379.543 146.088 375.764 145.179 372.582 143.361C369.42 141.524 366.986 138.929 365.281 135.577C363.577 132.205 362.724 128.238 362.724 123.673C362.724 119.185 363.577 115.245 365.281 111.855C367.005 108.446 369.41 105.794 372.497 103.9C375.584 101.988 379.211 101.031 383.378 101.031C386.067 101.031 388.605 101.467 390.992 102.338C393.397 103.19 395.518 104.516 397.355 106.315C399.211 108.114 400.67 110.406 401.73 113.19C402.791 115.955 403.321 119.251 403.321 123.077V126.23H367.554V119.298H393.463C393.444 117.328 393.018 115.577 392.185 114.042C391.351 112.489 390.187 111.268 388.69 110.378C387.213 109.488 385.49 109.042 383.52 109.042C381.418 109.042 379.571 109.554 377.98 110.577C376.389 111.58 375.149 112.906 374.259 114.554C373.387 116.183 372.942 117.972 372.923 119.923V125.974C372.923 128.512 373.387 130.69 374.315 132.508C375.243 134.308 376.541 135.69 378.207 136.656C379.874 137.603 381.825 138.077 384.06 138.077C385.556 138.077 386.91 137.868 388.122 137.452C389.334 137.016 390.385 136.381 391.276 135.548C392.166 134.715 392.838 133.683 393.293 132.452L402.895 133.531C402.289 136.069 401.134 138.285 399.429 140.179C397.743 142.054 395.584 143.512 392.952 144.554C390.319 145.577 387.308 146.088 383.918 146.088ZM419.493 101.599L428.3 117.707L437.249 101.599H448.129L434.976 123.417L448.357 145.236H437.533L428.3 129.525L419.152 145.236H408.243L421.538 123.417L408.584 101.599H419.493Z" fill="white"/>
<path d="M674.006 105.932V103.092L609.488 72.0128L545.025 103.064V105.959L609.488 137.011L674.006 105.932Z" fill="white"/>
<path d="M567.359 122.381V140.955L606.222 159.676H612.753L651.509 141.007C651.547 140.925 651.582 140.843 651.616 140.761V122.381L609.488 142.674L567.359 122.381Z" fill="white"/>
<path d="M667.211 150.795V114.661L662.108 117.234V150.795L658.784 160.924L663.809 167.65H665.51L670.535 160.924L667.211 150.795Z" fill="white"/>
</g>
<defs>
<filter id="filter0_i_2_5812" x="0.439453" y="0.356689" width="716.561" height="238.854" filterUnits="userSpaceOnUse" color-interpolation-filters="sRGB">
<feFlood flood-opacity="0" result="BackgroundImageFix"/>
<feBlend mode="normal" in="SourceGraphic" in2="BackgroundImageFix" result="shape"/>
<feColorMatrix in="SourceAlpha" type="matrix" values="0 0 0 0 0 0 0 0 0 0 0 0 0 0 0 0 0 0 127 0" result="hardAlpha"/>
<feOffset dy="-20"/>
<feComposite in2="hardAlpha" operator="arithmetic" k2="-1" k3="1"/>
<feColorMatrix type="matrix" values="0 0 0 0 0 0 0 0 0 0 0 0 0 0 0 0 0 0 0.1 0"/>
<feBlend mode="normal" in2="shape" result="effect1_innerShadow_2_5812"/>
</filter>
</defs>
</svg>
