<svg width="717" height="240" viewBox="0 0 717 240" fill="none" xmlns="http://www.w3.org/2000/svg">
<rect y="0.356689" width="716.561" height="238.854" rx="20" fill="#8232E9"/>
<path d="M164.392 89.8182H175.045L193.568 135.045H194.25L212.773 89.8182H223.426V148H215.074V105.898H214.534L197.375 147.915H190.443L173.284 105.869H172.744V148H164.392V89.8182ZM235.507 148V104.364H244.001V148H235.507ZM239.797 97.6307C238.32 97.6307 237.051 97.1383 235.99 96.1534C234.948 95.1496 234.428 93.9564 234.428 92.5739C234.428 91.1723 234.948 89.9792 235.99 88.9943C237.051 87.9905 238.32 87.4886 239.797 87.4886C241.274 87.4886 242.534 87.9905 243.575 88.9943C244.636 89.9792 245.166 91.1723 245.166 92.5739C245.166 93.9564 244.636 95.1496 243.575 96.1534C242.534 97.1383 241.274 97.6307 239.797 97.6307ZM271.764 148.852C268.241 148.852 265.098 147.953 262.332 146.153C259.586 144.335 257.427 141.75 255.855 138.398C254.302 135.027 253.526 130.983 253.526 126.267C253.526 121.551 254.312 117.517 255.884 114.165C257.474 110.812 259.652 108.246 262.418 106.466C265.183 104.686 268.317 103.795 271.821 103.795C274.529 103.795 276.707 104.25 278.355 105.159C280.022 106.049 281.31 107.091 282.219 108.284C283.147 109.477 283.866 110.528 284.378 111.438H284.889V89.8182H293.384V148H285.088V141.21H284.378C283.866 142.138 283.128 143.199 282.162 144.392C281.215 145.585 279.908 146.627 278.241 147.517C276.575 148.407 274.416 148.852 271.764 148.852ZM273.639 141.608C276.082 141.608 278.147 140.964 279.832 139.676C281.537 138.369 282.825 136.561 283.696 134.25C284.586 131.939 285.031 129.25 285.031 126.182C285.031 123.152 284.596 120.5 283.724 118.227C282.853 115.955 281.575 114.184 279.889 112.915C278.204 111.646 276.12 111.011 273.639 111.011C271.082 111.011 268.952 111.674 267.247 113C265.543 114.326 264.255 116.134 263.384 118.426C262.531 120.718 262.105 123.303 262.105 126.182C262.105 129.098 262.541 131.722 263.412 134.051C264.283 136.381 265.571 138.227 267.276 139.591C268.999 140.936 271.12 141.608 273.639 141.608ZM321.842 148.852C318.32 148.852 315.176 147.953 312.411 146.153C309.664 144.335 307.505 141.75 305.933 138.398C304.38 135.027 303.604 130.983 303.604 126.267C303.604 121.551 304.39 117.517 305.962 114.165C307.553 110.812 309.731 108.246 312.496 106.466C315.261 104.686 318.395 103.795 321.899 103.795C324.607 103.795 326.786 104.25 328.433 105.159C330.1 106.049 331.388 107.091 332.297 108.284C333.225 109.477 333.945 110.528 334.456 111.438H334.967V89.8182H343.462V148H335.166V141.21H334.456C333.945 142.138 333.206 143.199 332.24 144.392C331.293 145.585 329.986 146.627 328.32 147.517C326.653 148.407 324.494 148.852 321.842 148.852ZM323.717 141.608C326.161 141.608 328.225 140.964 329.911 139.676C331.615 138.369 332.903 136.561 333.774 134.25C334.664 131.939 335.109 129.25 335.109 126.182C335.109 123.152 334.674 120.5 333.803 118.227C332.931 115.955 331.653 114.184 329.967 112.915C328.282 111.646 326.198 111.011 323.717 111.011C321.161 111.011 319.03 111.674 317.325 113C315.621 114.326 314.333 116.134 313.462 118.426C312.609 120.718 312.183 123.303 312.183 126.182C312.183 129.098 312.619 131.722 313.49 134.051C314.361 136.381 315.649 138.227 317.354 139.591C319.077 140.936 321.198 141.608 323.717 141.608ZM364.08 89.8182V148H355.585V89.8182H364.08ZM394.314 148.881C390.015 148.881 386.312 147.962 383.206 146.125C380.119 144.269 377.732 141.665 376.047 138.312C374.38 134.941 373.547 130.992 373.547 126.466C373.547 121.996 374.38 118.057 376.047 114.648C377.732 111.239 380.081 108.578 383.092 106.665C386.123 104.752 389.664 103.795 393.717 103.795C396.179 103.795 398.566 104.203 400.876 105.017C403.187 105.831 405.261 107.11 407.098 108.852C408.935 110.595 410.384 112.858 411.445 115.642C412.505 118.407 413.036 121.769 413.036 125.727V128.739H378.348V122.375H404.712C404.712 120.14 404.257 118.161 403.348 116.438C402.439 114.695 401.161 113.322 399.513 112.318C397.884 111.314 395.971 110.812 393.774 110.812C391.388 110.812 389.304 111.4 387.524 112.574C385.763 113.729 384.399 115.244 383.433 117.119C382.486 118.975 382.013 120.992 382.013 123.17V128.142C382.013 131.059 382.524 133.54 383.547 135.585C384.589 137.631 386.037 139.193 387.893 140.273C389.75 141.333 391.918 141.864 394.399 141.864C396.009 141.864 397.477 141.636 398.803 141.182C400.128 140.708 401.274 140.008 402.24 139.08C403.206 138.152 403.945 137.006 404.456 135.642L412.496 137.091C411.852 139.458 410.696 141.532 409.03 143.312C407.382 145.074 405.308 146.447 402.808 147.432C400.327 148.398 397.496 148.881 394.314 148.881ZM455.159 115.017L447.46 116.381C447.138 115.396 446.627 114.458 445.926 113.568C445.244 112.678 444.316 111.949 443.142 111.381C441.968 110.812 440.5 110.528 438.739 110.528C436.333 110.528 434.326 111.068 432.716 112.148C431.106 113.208 430.301 114.581 430.301 116.267C430.301 117.725 430.841 118.9 431.92 119.79C433 120.68 434.742 121.409 437.148 121.977L444.08 123.568C448.095 124.496 451.087 125.926 453.057 127.858C455.027 129.79 456.011 132.299 456.011 135.386C456.011 138 455.254 140.33 453.739 142.375C452.242 144.402 450.15 145.992 447.46 147.148C444.79 148.303 441.693 148.881 438.17 148.881C433.284 148.881 429.297 147.839 426.21 145.756C423.123 143.653 421.229 140.67 420.528 136.807L428.739 135.557C429.25 137.697 430.301 139.316 431.892 140.415C433.483 141.494 435.557 142.034 438.114 142.034C440.898 142.034 443.123 141.456 444.79 140.301C446.456 139.127 447.29 137.697 447.29 136.011C447.29 134.648 446.778 133.502 445.756 132.574C444.752 131.646 443.208 130.945 441.125 130.472L433.739 128.852C429.667 127.924 426.655 126.447 424.705 124.42C422.773 122.394 421.807 119.828 421.807 116.722C421.807 114.146 422.527 111.892 423.966 109.96C425.405 108.028 427.394 106.523 429.932 105.443C432.47 104.345 435.377 103.795 438.653 103.795C443.369 103.795 447.081 104.818 449.79 106.864C452.498 108.89 454.288 111.608 455.159 115.017ZM484.158 148.881C479.858 148.881 476.156 147.962 473.05 146.125C469.963 144.269 467.576 141.665 465.891 138.312C464.224 134.941 463.391 130.992 463.391 126.466C463.391 121.996 464.224 118.057 465.891 114.648C467.576 111.239 469.925 108.578 472.936 106.665C475.966 104.752 479.508 103.795 483.561 103.795C486.023 103.795 488.41 104.203 490.72 105.017C493.031 105.831 495.105 107.11 496.942 108.852C498.779 110.595 500.228 112.858 501.288 115.642C502.349 118.407 502.879 121.769 502.879 125.727V128.739H468.192V122.375H494.555C494.555 120.14 494.101 118.161 493.192 116.438C492.283 114.695 491.004 113.322 489.357 112.318C487.728 111.314 485.815 110.812 483.618 110.812C481.232 110.812 479.148 111.4 477.368 112.574C475.607 113.729 474.243 115.244 473.277 117.119C472.33 118.975 471.857 120.992 471.857 123.17V128.142C471.857 131.059 472.368 133.54 473.391 135.585C474.432 137.631 475.881 139.193 477.737 140.273C479.593 141.333 481.762 141.864 484.243 141.864C485.853 141.864 487.321 141.636 488.646 141.182C489.972 140.708 491.118 140.008 492.084 139.08C493.05 138.152 493.788 137.006 494.3 135.642L502.339 137.091C501.696 139.458 500.54 141.532 498.874 143.312C497.226 145.074 495.152 146.447 492.652 147.432C490.171 148.398 487.339 148.881 484.158 148.881ZM517.993 104.364L527.624 121.352L537.339 104.364H546.629L533.021 126.182L546.743 148H537.453L527.624 131.693L517.822 148H508.504L522.084 126.182L508.675 104.364H517.993Z" fill="white"/>
</svg>
