<svg width="717" height="240" viewBox="0 0 717 240" fill="none" xmlns="http://www.w3.org/2000/svg">
<rect x="4" y="4.43311" width="708.561" height="230.854" rx="16" stroke="#8232E9" stroke-width="8"/>
<path d="M130.392 145V86.8182H151.131C155.638 86.8182 159.379 87.5947 162.352 89.1477C165.345 90.7008 167.58 92.8504 169.057 95.5966C170.534 98.3239 171.273 101.477 171.273 105.057C171.273 108.617 170.525 111.752 169.028 114.46C167.551 117.15 165.316 119.242 162.324 120.739C159.35 122.235 155.61 122.983 151.102 122.983H135.392V115.426H150.307C153.148 115.426 155.458 115.019 157.239 114.205C159.038 113.39 160.354 112.206 161.188 110.653C162.021 109.1 162.438 107.235 162.438 105.057C162.438 102.86 162.011 100.956 161.159 99.3466C160.326 97.7367 159.009 96.5057 157.21 95.6534C155.43 94.7822 153.091 94.3466 150.193 94.3466H139.17V145H130.392ZM159.114 118.75L173.489 145H163.489L149.398 118.75H159.114ZM199.533 145.881C195.233 145.881 191.531 144.962 188.425 143.125C185.338 141.269 182.951 138.665 181.266 135.312C179.599 131.941 178.766 127.992 178.766 123.466C178.766 118.996 179.599 115.057 181.266 111.648C182.951 108.239 185.3 105.578 188.311 103.665C191.341 101.752 194.883 100.795 198.936 100.795C201.398 100.795 203.785 101.203 206.095 102.017C208.406 102.831 210.48 104.11 212.317 105.852C214.154 107.595 215.603 109.858 216.663 112.642C217.724 115.407 218.254 118.769 218.254 122.727V125.739H183.567V119.375H209.93C209.93 117.14 209.476 115.161 208.567 113.438C207.658 111.695 206.379 110.322 204.732 109.318C203.103 108.314 201.19 107.812 198.993 107.812C196.607 107.812 194.523 108.4 192.743 109.574C190.982 110.729 189.618 112.244 188.652 114.119C187.705 115.975 187.232 117.992 187.232 120.17V125.142C187.232 128.059 187.743 130.54 188.766 132.585C189.807 134.631 191.256 136.193 193.112 137.273C194.968 138.333 197.137 138.864 199.618 138.864C201.228 138.864 202.696 138.636 204.021 138.182C205.347 137.708 206.493 137.008 207.459 136.08C208.425 135.152 209.163 134.006 209.675 132.642L217.714 134.091C217.071 136.458 215.915 138.532 214.249 140.312C212.601 142.074 210.527 143.447 208.027 144.432C205.546 145.398 202.714 145.881 199.533 145.881ZM248.446 101.364V108.182H223.787V101.364H248.446ZM230.548 145V96.3068C230.548 93.5795 231.145 91.3163 232.338 89.517C233.531 87.6989 235.113 86.3447 237.082 85.4545C239.052 84.5455 241.192 84.0909 243.503 84.0909C245.207 84.0909 246.666 84.233 247.878 84.517C249.09 84.7822 249.99 85.0284 250.577 85.2557L248.588 92.1307C248.19 92.017 247.679 91.8845 247.054 91.733C246.429 91.5625 245.671 91.4773 244.781 91.4773C242.717 91.4773 241.24 91.9886 240.349 93.0114C239.478 94.0341 239.043 95.5114 239.043 97.4432V145H230.548ZM274.298 145.881C269.999 145.881 266.296 144.962 263.19 143.125C260.103 141.269 257.717 138.665 256.031 135.312C254.365 131.941 253.531 127.992 253.531 123.466C253.531 118.996 254.365 115.057 256.031 111.648C257.717 108.239 260.065 105.578 263.077 103.665C266.107 101.752 269.649 100.795 273.702 100.795C276.164 100.795 278.55 101.203 280.861 102.017C283.171 102.831 285.245 104.11 287.082 105.852C288.92 107.595 290.368 109.858 291.429 112.642C292.49 115.407 293.02 118.769 293.02 122.727V125.739H258.332V119.375H284.696C284.696 117.14 284.241 115.161 283.332 113.438C282.423 111.695 281.145 110.322 279.497 109.318C277.868 108.314 275.955 107.812 273.759 107.812C271.372 107.812 269.289 108.4 267.509 109.574C265.747 110.729 264.384 112.244 263.418 114.119C262.471 115.975 261.997 117.992 261.997 120.17V125.142C261.997 128.059 262.509 130.54 263.531 132.585C264.573 134.631 266.022 136.193 267.878 137.273C269.734 138.333 271.902 138.864 274.384 138.864C275.993 138.864 277.461 138.636 278.787 138.182C280.113 137.708 281.259 137.008 282.224 136.08C283.19 135.152 283.929 134.006 284.44 132.642L292.48 134.091C291.836 136.458 290.681 138.532 289.014 140.312C287.366 142.074 285.293 143.447 282.793 144.432C280.312 145.398 277.48 145.881 274.298 145.881ZM302.445 145V101.364H310.655V108.295H311.109C311.905 105.947 313.306 104.1 315.314 102.756C317.34 101.392 319.632 100.71 322.189 100.71C322.719 100.71 323.344 100.729 324.064 100.767C324.803 100.805 325.38 100.852 325.797 100.909V109.034C325.456 108.939 324.85 108.835 323.979 108.722C323.107 108.589 322.236 108.523 321.365 108.523C319.357 108.523 317.568 108.949 315.996 109.801C314.443 110.634 313.212 111.799 312.303 113.295C311.393 114.773 310.939 116.458 310.939 118.352V145H302.445ZM350.392 145.881C346.093 145.881 342.39 144.962 339.284 143.125C336.197 141.269 333.811 138.665 332.125 135.312C330.458 131.941 329.625 127.992 329.625 123.466C329.625 118.996 330.458 115.057 332.125 111.648C333.811 108.239 336.159 105.578 339.17 103.665C342.201 101.752 345.742 100.795 349.795 100.795C352.258 100.795 354.644 101.203 356.955 102.017C359.265 102.831 361.339 104.11 363.176 105.852C365.013 107.595 366.462 109.858 367.523 112.642C368.583 115.407 369.114 118.769 369.114 122.727V125.739H334.426V119.375H360.79C360.79 117.14 360.335 115.161 359.426 113.438C358.517 111.695 357.239 110.322 355.591 109.318C353.962 108.314 352.049 107.812 349.852 107.812C347.466 107.812 345.383 108.4 343.602 109.574C341.841 110.729 340.477 112.244 339.511 114.119C338.564 115.975 338.091 117.992 338.091 120.17V125.142C338.091 128.059 338.602 130.54 339.625 132.585C340.667 134.631 342.116 136.193 343.972 137.273C345.828 138.333 347.996 138.864 350.477 138.864C352.087 138.864 353.555 138.636 354.881 138.182C356.206 137.708 357.352 137.008 358.318 136.08C359.284 135.152 360.023 134.006 360.534 132.642L368.574 134.091C367.93 136.458 366.775 138.532 365.108 140.312C363.46 142.074 361.386 143.447 358.886 144.432C356.405 145.398 353.574 145.881 350.392 145.881ZM387.033 119.091V145H378.538V101.364H386.692V108.466H387.232C388.235 106.155 389.807 104.299 391.947 102.898C394.107 101.496 396.824 100.795 400.101 100.795C403.074 100.795 405.679 101.42 407.913 102.67C410.148 103.902 411.881 105.739 413.112 108.182C414.343 110.625 414.959 113.646 414.959 117.244V145H406.464V118.267C406.464 115.104 405.641 112.633 403.993 110.852C402.345 109.053 400.082 108.153 397.203 108.153C395.233 108.153 393.482 108.58 391.947 109.432C390.432 110.284 389.23 111.534 388.339 113.182C387.468 114.811 387.033 116.78 387.033 119.091ZM444.732 145.881C440.508 145.881 436.872 144.924 433.822 143.011C430.792 141.08 428.463 138.419 426.834 135.028C425.205 131.638 424.391 127.756 424.391 123.381C424.391 118.949 425.224 115.038 426.891 111.648C428.557 108.239 430.906 105.578 433.936 103.665C436.966 101.752 440.536 100.795 444.646 100.795C447.961 100.795 450.915 101.411 453.51 102.642C456.105 103.854 458.197 105.559 459.788 107.756C461.398 109.953 462.355 112.519 462.658 115.455H454.391C453.936 113.409 452.894 111.648 451.266 110.17C449.656 108.693 447.497 107.955 444.788 107.955C442.421 107.955 440.347 108.58 438.567 109.83C436.805 111.061 435.432 112.822 434.447 115.114C433.463 117.386 432.97 120.076 432.97 123.182C432.97 126.364 433.453 129.11 434.419 131.42C435.385 133.731 436.749 135.521 438.51 136.79C440.29 138.059 442.383 138.693 444.788 138.693C446.398 138.693 447.857 138.4 449.163 137.812C450.489 137.206 451.597 136.345 452.487 135.227C453.396 134.11 454.031 132.765 454.391 131.193H462.658C462.355 134.015 461.436 136.534 459.902 138.75C458.368 140.966 456.313 142.708 453.737 143.977C451.18 145.246 448.179 145.881 444.732 145.881ZM490.548 145.881C486.249 145.881 482.546 144.962 479.44 143.125C476.353 141.269 473.967 138.665 472.281 135.312C470.615 131.941 469.781 127.992 469.781 123.466C469.781 118.996 470.615 115.057 472.281 111.648C473.967 108.239 476.315 105.578 479.327 103.665C482.357 101.752 485.899 100.795 489.952 100.795C492.414 100.795 494.8 101.203 497.111 102.017C499.421 102.831 501.495 104.11 503.332 105.852C505.17 107.595 506.618 109.858 507.679 112.642C508.74 115.407 509.27 118.769 509.27 122.727V125.739H474.582V119.375H500.946C500.946 117.14 500.491 115.161 499.582 113.438C498.673 111.695 497.395 110.322 495.747 109.318C494.118 108.314 492.205 107.812 490.009 107.812C487.622 107.812 485.539 108.4 483.759 109.574C481.997 110.729 480.634 112.244 479.668 114.119C478.721 115.975 478.247 117.992 478.247 120.17V125.142C478.247 128.059 478.759 130.54 479.781 132.585C480.823 134.631 482.272 136.193 484.128 137.273C485.984 138.333 488.152 138.864 490.634 138.864C492.243 138.864 493.711 138.636 495.037 138.182C496.363 137.708 497.509 137.008 498.474 136.08C499.44 135.152 500.179 134.006 500.69 132.642L508.73 134.091C508.086 136.458 506.931 138.532 505.264 140.312C503.616 142.074 501.543 143.447 499.043 144.432C496.562 145.398 493.73 145.881 490.548 145.881ZM551.393 112.017L543.695 113.381C543.373 112.396 542.861 111.458 542.161 110.568C541.479 109.678 540.551 108.949 539.376 108.381C538.202 107.812 536.734 107.528 534.973 107.528C532.568 107.528 530.56 108.068 528.95 109.148C527.34 110.208 526.536 111.581 526.536 113.267C526.536 114.725 527.075 115.9 528.155 116.79C529.234 117.68 530.977 118.409 533.382 118.977L540.314 120.568C544.329 121.496 547.321 122.926 549.291 124.858C551.261 126.79 552.246 129.299 552.246 132.386C552.246 135 551.488 137.33 549.973 139.375C548.477 141.402 546.384 142.992 543.695 144.148C541.024 145.303 537.928 145.881 534.405 145.881C529.518 145.881 525.532 144.839 522.445 142.756C519.357 140.653 517.464 137.67 516.763 133.807L524.973 132.557C525.484 134.697 526.536 136.316 528.126 137.415C529.717 138.494 531.791 139.034 534.348 139.034C537.132 139.034 539.357 138.456 541.024 137.301C542.691 136.127 543.524 134.697 543.524 133.011C543.524 131.648 543.013 130.502 541.99 129.574C540.986 128.646 539.443 127.945 537.359 127.472L529.973 125.852C525.901 124.924 522.89 123.447 520.939 121.42C519.007 119.394 518.041 116.828 518.041 113.722C518.041 111.146 518.761 108.892 520.2 106.96C521.64 105.028 523.628 103.523 526.166 102.443C528.704 101.345 531.611 100.795 534.888 100.795C539.604 100.795 543.316 101.818 546.024 103.864C548.732 105.89 550.522 108.608 551.393 112.017Z" fill="#8232E9"/>
</svg>
