<svg width="717" height="240" viewBox="0 0 717 240" fill="none" xmlns="http://www.w3.org/2000/svg">
<g filter="url(#filter0_i_2_5791)">
<rect x="0.439453" y="0.433105" width="716.561" height="238.854" rx="20" fill="#8232E9"/>
<path d="M131.392 145V86.8182H152.131C156.638 86.8182 160.379 87.5947 163.352 89.1477C166.345 90.7008 168.58 92.8504 170.057 95.5966C171.534 98.3239 172.273 101.477 172.273 105.057C172.273 108.617 171.525 111.752 170.028 114.46C168.551 117.15 166.316 119.242 163.324 120.739C160.35 122.235 156.61 122.983 152.102 122.983H136.392V115.426H151.307C154.148 115.426 156.458 115.019 158.239 114.205C160.038 113.39 161.354 112.206 162.188 110.653C163.021 109.1 163.438 107.235 163.438 105.057C163.438 102.86 163.011 100.956 162.159 99.3466C161.326 97.7367 160.009 96.5057 158.21 95.6534C156.43 94.7822 154.091 94.3466 151.193 94.3466H140.17V145H131.392ZM160.114 118.75L174.489 145H164.489L150.398 118.75H160.114ZM200.533 145.881C196.233 145.881 192.531 144.962 189.425 143.125C186.338 141.269 183.951 138.665 182.266 135.312C180.599 131.941 179.766 127.992 179.766 123.466C179.766 118.996 180.599 115.057 182.266 111.648C183.951 108.239 186.3 105.578 189.311 103.665C192.341 101.752 195.883 100.795 199.936 100.795C202.398 100.795 204.785 101.203 207.095 102.017C209.406 102.831 211.48 104.11 213.317 105.852C215.154 107.595 216.603 109.858 217.663 112.642C218.724 115.407 219.254 118.769 219.254 122.727V125.739H184.567V119.375H210.93C210.93 117.14 210.476 115.161 209.567 113.438C208.658 111.695 207.379 110.322 205.732 109.318C204.103 108.314 202.19 107.812 199.993 107.812C197.607 107.812 195.523 108.4 193.743 109.574C191.982 110.729 190.618 112.244 189.652 114.119C188.705 115.975 188.232 117.992 188.232 120.17V125.142C188.232 128.059 188.743 130.54 189.766 132.585C190.807 134.631 192.256 136.193 194.112 137.273C195.968 138.333 198.137 138.864 200.618 138.864C202.228 138.864 203.696 138.636 205.021 138.182C206.347 137.708 207.493 137.008 208.459 136.08C209.425 135.152 210.163 134.006 210.675 132.642L218.714 134.091C218.071 136.458 216.915 138.532 215.249 140.312C213.601 142.074 211.527 143.447 209.027 144.432C206.546 145.398 203.714 145.881 200.533 145.881ZM249.446 101.364V108.182H224.787V101.364H249.446ZM231.548 145V96.3068C231.548 93.5795 232.145 91.3163 233.338 89.517C234.531 87.6989 236.113 86.3447 238.082 85.4545C240.052 84.5455 242.192 84.0909 244.503 84.0909C246.207 84.0909 247.666 84.233 248.878 84.517C250.09 84.7822 250.99 85.0284 251.577 85.2557L249.588 92.1307C249.19 92.017 248.679 91.8845 248.054 91.733C247.429 91.5625 246.671 91.4773 245.781 91.4773C243.717 91.4773 242.24 91.9886 241.349 93.0114C240.478 94.0341 240.043 95.5114 240.043 97.4432V145H231.548ZM275.298 145.881C270.999 145.881 267.296 144.962 264.19 143.125C261.103 141.269 258.717 138.665 257.031 135.312C255.365 131.941 254.531 127.992 254.531 123.466C254.531 118.996 255.365 115.057 257.031 111.648C258.717 108.239 261.065 105.578 264.077 103.665C267.107 101.752 270.649 100.795 274.702 100.795C277.164 100.795 279.55 101.203 281.861 102.017C284.171 102.831 286.245 104.11 288.082 105.852C289.92 107.595 291.368 109.858 292.429 112.642C293.49 115.407 294.02 118.769 294.02 122.727V125.739H259.332V119.375H285.696C285.696 117.14 285.241 115.161 284.332 113.438C283.423 111.695 282.145 110.322 280.497 109.318C278.868 108.314 276.955 107.812 274.759 107.812C272.372 107.812 270.289 108.4 268.509 109.574C266.747 110.729 265.384 112.244 264.418 114.119C263.471 115.975 262.997 117.992 262.997 120.17V125.142C262.997 128.059 263.509 130.54 264.531 132.585C265.573 134.631 267.022 136.193 268.878 137.273C270.734 138.333 272.902 138.864 275.384 138.864C276.993 138.864 278.461 138.636 279.787 138.182C281.113 137.708 282.259 137.008 283.224 136.08C284.19 135.152 284.929 134.006 285.44 132.642L293.48 134.091C292.836 136.458 291.681 138.532 290.014 140.312C288.366 142.074 286.293 143.447 283.793 144.432C281.312 145.398 278.48 145.881 275.298 145.881ZM303.445 145V101.364H311.655V108.295H312.109C312.905 105.947 314.306 104.1 316.314 102.756C318.34 101.392 320.632 100.71 323.189 100.71C323.719 100.71 324.344 100.729 325.064 100.767C325.803 100.805 326.38 100.852 326.797 100.909V109.034C326.456 108.939 325.85 108.835 324.979 108.722C324.107 108.589 323.236 108.523 322.365 108.523C320.357 108.523 318.568 108.949 316.996 109.801C315.443 110.634 314.212 111.799 313.303 113.295C312.393 114.773 311.939 116.458 311.939 118.352V145H303.445ZM351.392 145.881C347.093 145.881 343.39 144.962 340.284 143.125C337.197 141.269 334.811 138.665 333.125 135.312C331.458 131.941 330.625 127.992 330.625 123.466C330.625 118.996 331.458 115.057 333.125 111.648C334.811 108.239 337.159 105.578 340.17 103.665C343.201 101.752 346.742 100.795 350.795 100.795C353.258 100.795 355.644 101.203 357.955 102.017C360.265 102.831 362.339 104.11 364.176 105.852C366.013 107.595 367.462 109.858 368.523 112.642C369.583 115.407 370.114 118.769 370.114 122.727V125.739H335.426V119.375H361.79C361.79 117.14 361.335 115.161 360.426 113.438C359.517 111.695 358.239 110.322 356.591 109.318C354.962 108.314 353.049 107.812 350.852 107.812C348.466 107.812 346.383 108.4 344.602 109.574C342.841 110.729 341.477 112.244 340.511 114.119C339.564 115.975 339.091 117.992 339.091 120.17V125.142C339.091 128.059 339.602 130.54 340.625 132.585C341.667 134.631 343.116 136.193 344.972 137.273C346.828 138.333 348.996 138.864 351.477 138.864C353.087 138.864 354.555 138.636 355.881 138.182C357.206 137.708 358.352 137.008 359.318 136.08C360.284 135.152 361.023 134.006 361.534 132.642L369.574 134.091C368.93 136.458 367.775 138.532 366.108 140.312C364.46 142.074 362.386 143.447 359.886 144.432C357.405 145.398 354.574 145.881 351.392 145.881ZM388.033 119.091V145H379.538V101.364H387.692V108.466H388.232C389.235 106.155 390.807 104.299 392.947 102.898C395.107 101.496 397.824 100.795 401.101 100.795C404.074 100.795 406.679 101.42 408.913 102.67C411.148 103.902 412.881 105.739 414.112 108.182C415.343 110.625 415.959 113.646 415.959 117.244V145H407.464V118.267C407.464 115.104 406.641 112.633 404.993 110.852C403.345 109.053 401.082 108.153 398.203 108.153C396.233 108.153 394.482 108.58 392.947 109.432C391.432 110.284 390.23 111.534 389.339 113.182C388.468 114.811 388.033 116.78 388.033 119.091ZM445.732 145.881C441.508 145.881 437.872 144.924 434.822 143.011C431.792 141.08 429.463 138.419 427.834 135.028C426.205 131.638 425.391 127.756 425.391 123.381C425.391 118.949 426.224 115.038 427.891 111.648C429.557 108.239 431.906 105.578 434.936 103.665C437.966 101.752 441.536 100.795 445.646 100.795C448.961 100.795 451.915 101.411 454.51 102.642C457.105 103.854 459.197 105.559 460.788 107.756C462.398 109.953 463.355 112.519 463.658 115.455H455.391C454.936 113.409 453.894 111.648 452.266 110.17C450.656 108.693 448.497 107.955 445.788 107.955C443.421 107.955 441.347 108.58 439.567 109.83C437.805 111.061 436.432 112.822 435.447 115.114C434.463 117.386 433.97 120.076 433.97 123.182C433.97 126.364 434.453 129.11 435.419 131.42C436.385 133.731 437.749 135.521 439.51 136.79C441.29 138.059 443.383 138.693 445.788 138.693C447.398 138.693 448.857 138.4 450.163 137.812C451.489 137.206 452.597 136.345 453.487 135.227C454.396 134.11 455.031 132.765 455.391 131.193H463.658C463.355 134.015 462.436 136.534 460.902 138.75C459.368 140.966 457.313 142.708 454.737 143.977C452.18 145.246 449.179 145.881 445.732 145.881ZM491.548 145.881C487.249 145.881 483.546 144.962 480.44 143.125C477.353 141.269 474.967 138.665 473.281 135.312C471.615 131.941 470.781 127.992 470.781 123.466C470.781 118.996 471.615 115.057 473.281 111.648C474.967 108.239 477.315 105.578 480.327 103.665C483.357 101.752 486.899 100.795 490.952 100.795C493.414 100.795 495.8 101.203 498.111 102.017C500.421 102.831 502.495 104.11 504.332 105.852C506.17 107.595 507.618 109.858 508.679 112.642C509.74 115.407 510.27 118.769 510.27 122.727V125.739H475.582V119.375H501.946C501.946 117.14 501.491 115.161 500.582 113.438C499.673 111.695 498.395 110.322 496.747 109.318C495.118 108.314 493.205 107.812 491.009 107.812C488.622 107.812 486.539 108.4 484.759 109.574C482.997 110.729 481.634 112.244 480.668 114.119C479.721 115.975 479.247 117.992 479.247 120.17V125.142C479.247 128.059 479.759 130.54 480.781 132.585C481.823 134.631 483.272 136.193 485.128 137.273C486.984 138.333 489.152 138.864 491.634 138.864C493.243 138.864 494.711 138.636 496.037 138.182C497.363 137.708 498.509 137.008 499.474 136.08C500.44 135.152 501.179 134.006 501.69 132.642L509.73 134.091C509.086 136.458 507.931 138.532 506.264 140.312C504.616 142.074 502.543 143.447 500.043 144.432C497.562 145.398 494.73 145.881 491.548 145.881ZM552.393 112.017L544.695 113.381C544.373 112.396 543.861 111.458 543.161 110.568C542.479 109.678 541.551 108.949 540.376 108.381C539.202 107.812 537.734 107.528 535.973 107.528C533.568 107.528 531.56 108.068 529.95 109.148C528.34 110.208 527.536 111.581 527.536 113.267C527.536 114.725 528.075 115.9 529.155 116.79C530.234 117.68 531.977 118.409 534.382 118.977L541.314 120.568C545.329 121.496 548.321 122.926 550.291 124.858C552.261 126.79 553.246 129.299 553.246 132.386C553.246 135 552.488 137.33 550.973 139.375C549.477 141.402 547.384 142.992 544.695 144.148C542.024 145.303 538.928 145.881 535.405 145.881C530.518 145.881 526.532 144.839 523.445 142.756C520.357 140.653 518.464 137.67 517.763 133.807L525.973 132.557C526.484 134.697 527.536 136.316 529.126 137.415C530.717 138.494 532.791 139.034 535.348 139.034C538.132 139.034 540.357 138.456 542.024 137.301C543.691 136.127 544.524 134.697 544.524 133.011C544.524 131.648 544.013 130.502 542.99 129.574C541.986 128.646 540.443 127.945 538.359 127.472L530.973 125.852C526.901 124.924 523.89 123.447 521.939 121.42C520.007 119.394 519.041 116.828 519.041 113.722C519.041 111.146 519.761 108.892 521.2 106.96C522.64 105.028 524.628 103.523 527.166 102.443C529.704 101.345 532.611 100.795 535.888 100.795C540.604 100.795 544.316 101.818 547.024 103.864C549.732 105.89 551.522 108.608 552.393 112.017Z" fill="white"/>
</g>
<defs>
<filter id="filter0_i_2_5791" x="0.439453" y="0.433105" width="716.561" height="238.854" filterUnits="userSpaceOnUse" color-interpolation-filters="sRGB">
<feFlood flood-opacity="0" result="BackgroundImageFix"/>
<feBlend mode="normal" in="SourceGraphic" in2="BackgroundImageFix" result="shape"/>
<feColorMatrix in="SourceAlpha" type="matrix" values="0 0 0 0 0 0 0 0 0 0 0 0 0 0 0 0 0 0 127 0" result="hardAlpha"/>
<feOffset dy="-20"/>
<feComposite in2="hardAlpha" operator="arithmetic" k2="-1" k3="1"/>
<feColorMatrix type="matrix" values="0 0 0 0 0 0 0 0 0 0 0 0 0 0 0 0 0 0 0.1 0"/>
<feBlend mode="normal" in2="shape" result="effect1_innerShadow_2_5791"/>
</filter>
</defs>
</svg>
