<svg width="717" height="240" viewBox="0 0 717 240" fill="none" xmlns="http://www.w3.org/2000/svg">
<rect y="0.452225" width="716.561" height="238.854" rx="20" fill="#8232E9"/>
<path d="M140.392 148V89.8182H161.131C165.638 89.8182 169.379 90.5947 172.352 92.1477C175.345 93.7008 177.58 95.8504 179.057 98.5966C180.534 101.324 181.273 104.477 181.273 108.057C181.273 111.617 180.525 114.752 179.028 117.46C177.551 120.15 175.316 122.242 172.324 123.739C169.35 125.235 165.61 125.983 161.102 125.983H145.392V118.426H160.307C163.148 118.426 165.458 118.019 167.239 117.205C169.038 116.39 170.354 115.206 171.188 113.653C172.021 112.1 172.438 110.235 172.438 108.057C172.438 105.86 172.011 103.956 171.159 102.347C170.326 100.737 169.009 99.5057 167.21 98.6534C165.43 97.7822 163.091 97.3466 160.193 97.3466H149.17V148H140.392ZM169.114 121.75L183.489 148H173.489L159.398 121.75H169.114ZM209.533 148.881C205.233 148.881 201.531 147.962 198.425 146.125C195.338 144.269 192.951 141.665 191.266 138.312C189.599 134.941 188.766 130.992 188.766 126.466C188.766 121.996 189.599 118.057 191.266 114.648C192.951 111.239 195.3 108.578 198.311 106.665C201.341 104.752 204.883 103.795 208.936 103.795C211.398 103.795 213.785 104.203 216.095 105.017C218.406 105.831 220.48 107.11 222.317 108.852C224.154 110.595 225.603 112.858 226.663 115.642C227.724 118.407 228.254 121.769 228.254 125.727V128.739H193.567V122.375H219.93C219.93 120.14 219.476 118.161 218.567 116.438C217.658 114.695 216.379 113.322 214.732 112.318C213.103 111.314 211.19 110.812 208.993 110.812C206.607 110.812 204.523 111.4 202.743 112.574C200.982 113.729 199.618 115.244 198.652 117.119C197.705 118.975 197.232 120.992 197.232 123.17V128.142C197.232 131.059 197.743 133.54 198.766 135.585C199.807 137.631 201.256 139.193 203.112 140.273C204.968 141.333 207.137 141.864 209.618 141.864C211.228 141.864 212.696 141.636 214.021 141.182C215.347 140.708 216.493 140.008 217.459 139.08C218.425 138.152 219.163 137.006 219.675 135.642L227.714 137.091C227.071 139.458 225.915 141.532 224.249 143.312C222.601 145.074 220.527 146.447 218.027 147.432C215.546 148.398 212.714 148.881 209.533 148.881ZM270.378 115.017L262.679 116.381C262.357 115.396 261.846 114.458 261.145 113.568C260.463 112.678 259.535 111.949 258.361 111.381C257.187 110.812 255.719 110.528 253.957 110.528C251.552 110.528 249.545 111.068 247.935 112.148C246.325 113.208 245.52 114.581 245.52 116.267C245.52 117.725 246.06 118.9 247.139 119.79C248.219 120.68 249.961 121.409 252.366 121.977L259.298 123.568C263.313 124.496 266.306 125.926 268.276 127.858C270.245 129.79 271.23 132.299 271.23 135.386C271.23 138 270.473 140.33 268.957 142.375C267.461 144.402 265.368 145.992 262.679 147.148C260.009 148.303 256.912 148.881 253.389 148.881C248.503 148.881 244.516 147.839 241.429 145.756C238.342 143.653 236.448 140.67 235.747 136.807L243.957 135.557C244.469 137.697 245.52 139.316 247.111 140.415C248.702 141.494 250.776 142.034 253.332 142.034C256.116 142.034 258.342 141.456 260.009 140.301C261.675 139.127 262.509 137.697 262.509 136.011C262.509 134.648 261.997 133.502 260.974 132.574C259.971 131.646 258.427 130.945 256.344 130.472L248.957 128.852C244.885 127.924 241.874 126.447 239.923 124.42C237.991 122.394 237.026 119.828 237.026 116.722C237.026 114.146 237.745 111.892 239.185 109.96C240.624 108.028 242.613 106.523 245.151 105.443C247.688 104.345 250.596 103.795 253.872 103.795C258.588 103.795 262.3 104.818 265.009 106.864C267.717 108.89 269.507 111.608 270.378 115.017ZM280.57 148V104.364H289.064V148H280.57ZM284.859 97.6307C283.382 97.6307 282.113 97.1383 281.053 96.1534C280.011 95.1496 279.49 93.9564 279.49 92.5739C279.49 91.1723 280.011 89.9792 281.053 88.9943C282.113 87.9905 283.382 87.4886 284.859 87.4886C286.337 87.4886 287.596 87.9905 288.638 88.9943C289.698 89.9792 290.229 91.1723 290.229 92.5739C290.229 93.9564 289.698 95.1496 288.638 96.1534C287.596 97.1383 286.337 97.6307 284.859 97.6307ZM316.827 148.852C313.304 148.852 310.16 147.953 307.395 146.153C304.649 144.335 302.49 141.75 300.918 138.398C299.365 135.027 298.588 130.983 298.588 126.267C298.588 121.551 299.374 117.517 300.946 114.165C302.537 110.812 304.715 108.246 307.48 106.466C310.245 104.686 313.38 103.795 316.884 103.795C319.592 103.795 321.77 104.25 323.418 105.159C325.084 106.049 326.372 107.091 327.281 108.284C328.209 109.477 328.929 110.528 329.44 111.438H329.952V89.8182H338.446V148H330.151V141.21H329.44C328.929 142.138 328.19 143.199 327.224 144.392C326.277 145.585 324.971 146.627 323.304 147.517C321.637 148.407 319.478 148.852 316.827 148.852ZM318.702 141.608C321.145 141.608 323.209 140.964 324.895 139.676C326.599 138.369 327.887 136.561 328.759 134.25C329.649 131.939 330.094 129.25 330.094 126.182C330.094 123.152 329.658 120.5 328.787 118.227C327.916 115.955 326.637 114.184 324.952 112.915C323.266 111.646 321.183 111.011 318.702 111.011C316.145 111.011 314.014 111.674 312.31 113C310.605 114.326 309.317 116.134 308.446 118.426C307.594 120.718 307.168 123.303 307.168 126.182C307.168 129.098 307.603 131.722 308.474 134.051C309.346 136.381 310.634 138.227 312.338 139.591C314.062 140.936 316.183 141.608 318.702 141.608ZM369.376 148.881C365.077 148.881 361.375 147.962 358.268 146.125C355.181 144.269 352.795 141.665 351.109 138.312C349.443 134.941 348.609 130.992 348.609 126.466C348.609 121.996 349.443 118.057 351.109 114.648C352.795 111.239 355.143 108.578 358.155 106.665C361.185 104.752 364.727 103.795 368.78 103.795C371.242 103.795 373.628 104.203 375.939 105.017C378.25 105.831 380.323 107.11 382.161 108.852C383.998 110.595 385.446 112.858 386.507 115.642C387.568 118.407 388.098 121.769 388.098 125.727V128.739H353.411V122.375H379.774C379.774 120.14 379.32 118.161 378.411 116.438C377.501 114.695 376.223 113.322 374.575 112.318C372.946 111.314 371.034 110.812 368.837 110.812C366.45 110.812 364.367 111.4 362.587 112.574C360.825 113.729 359.462 115.244 358.496 117.119C357.549 118.975 357.075 120.992 357.075 123.17V128.142C357.075 131.059 357.587 133.54 358.609 135.585C359.651 137.631 361.1 139.193 362.956 140.273C364.812 141.333 366.981 141.864 369.462 141.864C371.071 141.864 372.539 141.636 373.865 141.182C375.191 140.708 376.337 140.008 377.303 139.08C378.268 138.152 379.007 137.006 379.518 135.642L387.558 137.091C386.914 139.458 385.759 141.532 384.092 143.312C382.445 145.074 380.371 146.447 377.871 147.432C375.39 148.398 372.558 148.881 369.376 148.881ZM406.017 122.091V148H397.523V104.364H405.676V111.466H406.216C407.22 109.155 408.792 107.299 410.932 105.898C413.091 104.496 415.809 103.795 419.085 103.795C422.059 103.795 424.663 104.42 426.898 105.67C429.133 106.902 430.866 108.739 432.097 111.182C433.328 113.625 433.943 116.646 433.943 120.244V148H425.449V121.267C425.449 118.104 424.625 115.633 422.977 113.852C421.33 112.053 419.066 111.153 416.188 111.153C414.218 111.153 412.466 111.58 410.932 112.432C409.417 113.284 408.214 114.534 407.324 116.182C406.453 117.811 406.017 119.78 406.017 122.091ZM463.716 148.881C459.492 148.881 455.856 147.924 452.807 146.011C449.777 144.08 447.447 141.419 445.818 138.028C444.189 134.638 443.375 130.756 443.375 126.381C443.375 121.949 444.208 118.038 445.875 114.648C447.542 111.239 449.89 108.578 452.92 106.665C455.951 104.752 459.521 103.795 463.631 103.795C466.945 103.795 469.9 104.411 472.494 105.642C475.089 106.854 477.182 108.559 478.773 110.756C480.383 112.953 481.339 115.519 481.642 118.455H473.375C472.92 116.409 471.879 114.648 470.25 113.17C468.64 111.693 466.481 110.955 463.773 110.955C461.405 110.955 459.331 111.58 457.551 112.83C455.79 114.061 454.417 115.822 453.432 118.114C452.447 120.386 451.955 123.076 451.955 126.182C451.955 129.364 452.438 132.11 453.403 134.42C454.369 136.731 455.733 138.521 457.494 139.79C459.275 141.059 461.367 141.693 463.773 141.693C465.383 141.693 466.841 141.4 468.148 140.812C469.473 140.206 470.581 139.345 471.472 138.227C472.381 137.11 473.015 135.765 473.375 134.193H481.642C481.339 137.015 480.42 139.534 478.886 141.75C477.352 143.966 475.297 145.708 472.722 146.977C470.165 148.246 467.163 148.881 463.716 148.881ZM509.533 148.881C505.233 148.881 501.531 147.962 498.425 146.125C495.338 144.269 492.951 141.665 491.266 138.312C489.599 134.941 488.766 130.992 488.766 126.466C488.766 121.996 489.599 118.057 491.266 114.648C492.951 111.239 495.3 108.578 498.311 106.665C501.341 104.752 504.883 103.795 508.936 103.795C511.398 103.795 513.785 104.203 516.095 105.017C518.406 105.831 520.48 107.11 522.317 108.852C524.154 110.595 525.603 112.858 526.663 115.642C527.724 118.407 528.254 121.769 528.254 125.727V128.739H493.567V122.375H519.93C519.93 120.14 519.476 118.161 518.567 116.438C517.658 114.695 516.379 113.322 514.732 112.318C513.103 111.314 511.19 110.812 508.993 110.812C506.607 110.812 504.523 111.4 502.743 112.574C500.982 113.729 499.618 115.244 498.652 117.119C497.705 118.975 497.232 120.992 497.232 123.17V128.142C497.232 131.059 497.743 133.54 498.766 135.585C499.807 137.631 501.256 139.193 503.112 140.273C504.968 141.333 507.137 141.864 509.618 141.864C511.228 141.864 512.696 141.636 514.021 141.182C515.347 140.708 516.493 140.008 517.459 139.08C518.425 138.152 519.163 137.006 519.675 135.642L527.714 137.091C527.071 139.458 525.915 141.532 524.249 143.312C522.601 145.074 520.527 146.447 518.027 147.432C515.546 148.398 512.714 148.881 509.533 148.881ZM570.378 115.017L562.679 116.381C562.357 115.396 561.846 114.458 561.145 113.568C560.463 112.678 559.535 111.949 558.361 111.381C557.187 110.812 555.719 110.528 553.957 110.528C551.552 110.528 549.545 111.068 547.935 112.148C546.325 113.208 545.52 114.581 545.52 116.267C545.52 117.725 546.06 118.9 547.139 119.79C548.219 120.68 549.961 121.409 552.366 121.977L559.298 123.568C563.313 124.496 566.306 125.926 568.276 127.858C570.245 129.79 571.23 132.299 571.23 135.386C571.23 138 570.473 140.33 568.957 142.375C567.461 144.402 565.368 145.992 562.679 147.148C560.009 148.303 556.912 148.881 553.389 148.881C548.503 148.881 544.516 147.839 541.429 145.756C538.342 143.653 536.448 140.67 535.747 136.807L543.957 135.557C544.469 137.697 545.52 139.316 547.111 140.415C548.702 141.494 550.776 142.034 553.332 142.034C556.116 142.034 558.342 141.456 560.009 140.301C561.675 139.127 562.509 137.697 562.509 136.011C562.509 134.648 561.997 133.502 560.974 132.574C559.971 131.646 558.427 130.945 556.344 130.472L548.957 128.852C544.885 127.924 541.874 126.447 539.923 124.42C537.991 122.394 537.026 119.828 537.026 116.722C537.026 114.146 537.745 111.892 539.185 109.96C540.624 108.028 542.613 106.523 545.151 105.443C547.688 104.345 550.596 103.795 553.872 103.795C558.588 103.795 562.3 104.818 565.009 106.864C567.717 108.89 569.507 111.608 570.378 115.017Z" fill="white"/>
</svg>
