<svg width="717" height="240" viewBox="0 0 717 240" fill="none" xmlns="http://www.w3.org/2000/svg">
<g filter="url(#filter0_i_2_5760)">
<rect x="0.439453" y="0.452225" width="716.561" height="238.854" rx="20" fill="#712EC4"/>
<path d="M525.917 29.1146H687.115C690.428 29.1146 693.115 31.8009 693.115 35.1146V190.312C693.115 193.626 690.428 196.312 687.115 196.312H525.917V29.1146Z" fill="black" fill-opacity="0.1"/>
<path d="M58.7259 145.331V87.1494H80.5441C85.0138 87.1494 88.7638 87.9259 91.7941 89.4789C94.8433 91.032 97.1444 93.21 98.6975 96.013C100.269 98.7971 101.055 102.045 101.055 105.757C101.055 109.488 100.26 112.727 98.6691 115.473C97.0971 118.201 94.777 120.312 91.7088 121.808C88.6407 123.286 84.8717 124.024 80.402 124.024H64.8622V115.274H78.9816C81.5952 115.274 83.7353 114.915 85.402 114.195C87.0687 113.456 88.2997 112.386 89.0952 110.985C89.9096 109.564 90.3168 107.822 90.3168 105.757C90.3168 103.693 89.9096 101.932 89.0952 100.473C88.2808 98.996 87.0403 97.8786 85.3736 97.121C83.7069 96.3445 81.5573 95.9562 78.9247 95.9562H69.2657V145.331H58.7259ZM88.7827 118.968L103.186 145.331H91.4247L77.277 118.968H88.7827ZM128.996 146.183C124.621 146.183 120.842 145.274 117.661 143.456C114.498 141.619 112.064 139.024 110.359 135.672C108.655 132.301 107.803 128.333 107.803 123.769C107.803 119.28 108.655 115.341 110.359 111.951C112.083 108.541 114.488 105.89 117.575 103.996C120.662 102.083 124.289 101.127 128.456 101.127C131.145 101.127 133.683 101.562 136.07 102.433C138.475 103.286 140.596 104.612 142.433 106.411C144.289 108.21 145.748 110.502 146.808 113.286C147.869 116.051 148.399 119.346 148.399 123.172V126.326H112.632V119.394H138.541C138.522 117.424 138.096 115.672 137.263 114.138C136.429 112.585 135.265 111.363 133.768 110.473C132.291 109.583 130.568 109.138 128.598 109.138C126.496 109.138 124.649 109.649 123.058 110.672C121.467 111.676 120.227 113.002 119.337 114.649C118.465 116.278 118.02 118.068 118.001 120.019V126.07C118.001 128.608 118.465 130.786 119.393 132.604C120.322 134.403 121.619 135.786 123.286 136.752C124.952 137.699 126.903 138.172 129.138 138.172C130.634 138.172 131.988 137.964 133.2 137.547C134.412 137.112 135.464 136.477 136.354 135.644C137.244 134.81 137.916 133.778 138.371 132.547L147.973 133.627C147.367 136.165 146.212 138.38 144.507 140.274C142.822 142.149 140.662 143.608 138.03 144.649C135.397 145.672 132.386 146.183 128.996 146.183ZM191.588 113.229L182.213 114.252C181.948 113.305 181.484 112.415 180.821 111.581C180.177 110.748 179.306 110.076 178.207 109.564C177.109 109.053 175.764 108.797 174.173 108.797C172.033 108.797 170.234 109.261 168.776 110.189C167.336 111.117 166.626 112.32 166.645 113.797C166.626 115.066 167.09 116.098 168.037 116.894C169.003 117.689 170.594 118.343 172.81 118.854L180.253 120.445C184.382 121.335 187.45 122.746 189.457 124.678C191.484 126.61 192.507 129.138 192.526 132.263C192.507 135.009 191.702 137.433 190.111 139.536C188.539 141.619 186.351 143.248 183.548 144.422C180.745 145.596 177.526 146.183 173.889 146.183C168.548 146.183 164.249 145.066 160.992 142.831C157.734 140.577 155.793 137.443 155.168 133.428L165.196 132.462C165.651 134.432 166.617 135.918 168.094 136.922C169.571 137.926 171.493 138.428 173.861 138.428C176.304 138.428 178.264 137.926 179.742 136.922C181.238 135.918 181.986 134.678 181.986 133.201C181.986 131.951 181.503 130.918 180.537 130.104C179.59 129.29 178.113 128.665 176.105 128.229L168.662 126.666C164.476 125.795 161.38 124.327 159.372 122.263C157.365 120.18 156.37 117.547 156.389 114.365C156.37 111.676 157.099 109.346 158.577 107.377C160.073 105.388 162.147 103.854 164.798 102.774C167.469 101.676 170.546 101.127 174.031 101.127C179.145 101.127 183.17 102.216 186.105 104.394C189.06 106.572 190.887 109.517 191.588 113.229ZM201.006 145.331V101.695H211.29V145.331H201.006ZM206.176 95.5017C204.547 95.5017 203.146 94.9619 201.972 93.8823C200.797 92.7839 200.21 91.4676 200.21 89.9335C200.21 88.3804 200.797 87.0642 201.972 85.9846C203.146 84.8861 204.547 84.3369 206.176 84.3369C207.824 84.3369 209.225 84.8861 210.381 85.9846C211.555 87.0642 212.142 88.3804 212.142 89.9335C212.142 91.4676 211.555 92.7839 210.381 93.8823C209.225 94.9619 207.824 95.5017 206.176 95.5017ZM238.058 146.098C234.63 146.098 231.562 145.218 228.854 143.456C226.145 141.695 224.005 139.138 222.433 135.786C220.861 132.433 220.075 128.362 220.075 123.57C220.075 118.721 220.871 114.63 222.462 111.297C224.072 107.945 226.24 105.416 228.967 103.712C231.695 101.988 234.734 101.127 238.087 101.127C240.643 101.127 242.746 101.562 244.393 102.433C246.041 103.286 247.348 104.318 248.314 105.53C249.28 106.723 250.028 107.85 250.558 108.911H250.984V87.1494H261.297V145.331H251.183V138.456H250.558C250.028 139.517 249.261 140.644 248.257 141.837C247.253 143.011 245.928 144.015 244.28 144.848C242.632 145.682 240.558 146.098 238.058 146.098ZM240.928 137.661C243.106 137.661 244.962 137.074 246.496 135.899C248.03 134.706 249.195 133.049 249.99 130.928C250.786 128.807 251.183 126.335 251.183 123.513C251.183 120.691 250.786 118.238 249.99 116.155C249.214 114.072 248.058 112.452 246.524 111.297C245.009 110.142 243.143 109.564 240.928 109.564C238.636 109.564 236.723 110.161 235.189 111.354C233.655 112.547 232.5 114.195 231.723 116.297C230.947 118.399 230.558 120.805 230.558 123.513C230.558 126.24 230.947 128.674 231.723 130.814C232.518 132.935 233.683 134.612 235.217 135.843C236.77 137.055 238.674 137.661 240.928 137.661ZM291.574 146.183C287.199 146.183 283.42 145.274 280.239 143.456C277.076 141.619 274.642 139.024 272.938 135.672C271.233 132.301 270.381 128.333 270.381 123.769C270.381 119.28 271.233 115.341 272.938 111.951C274.661 108.541 277.066 105.89 280.153 103.996C283.241 102.083 286.867 101.127 291.034 101.127C293.724 101.127 296.261 101.562 298.648 102.433C301.053 103.286 303.174 104.612 305.011 106.411C306.867 108.21 308.326 110.502 309.386 113.286C310.447 116.051 310.977 119.346 310.977 123.172V126.326H275.21V119.394H301.119C301.1 117.424 300.674 115.672 299.841 114.138C299.008 112.585 297.843 111.363 296.347 110.473C294.869 109.583 293.146 109.138 291.176 109.138C289.074 109.138 287.227 109.649 285.636 110.672C284.045 111.676 282.805 113.002 281.915 114.649C281.044 116.278 280.599 118.068 280.58 120.019V126.07C280.58 128.608 281.044 130.786 281.972 132.604C282.9 134.403 284.197 135.786 285.864 136.752C287.53 137.699 289.481 138.172 291.716 138.172C293.212 138.172 294.566 137.964 295.778 137.547C296.991 137.112 298.042 136.477 298.932 135.644C299.822 134.81 300.494 133.778 300.949 132.547L310.551 133.627C309.945 136.165 308.79 138.38 307.085 140.274C305.4 142.149 303.241 143.608 300.608 144.649C297.975 145.672 294.964 146.183 291.574 146.183ZM329.962 119.763V145.331H319.678V101.695H329.507V109.11H330.018C331.022 106.666 332.623 104.725 334.82 103.286C337.036 101.846 339.772 101.127 343.03 101.127C346.041 101.127 348.664 101.771 350.899 103.058C353.153 104.346 354.895 106.212 356.126 108.655C357.376 111.098 357.992 114.062 357.973 117.547V145.331H347.689V119.138C347.689 116.221 346.931 113.939 345.416 112.291C343.92 110.644 341.846 109.82 339.195 109.82C337.395 109.82 335.795 110.218 334.393 111.013C333.011 111.79 331.922 112.916 331.126 114.394C330.35 115.871 329.962 117.661 329.962 119.763ZM387.462 146.183C383.106 146.183 379.365 145.227 376.24 143.314C373.134 141.401 370.738 138.759 369.053 135.388C367.386 131.998 366.553 128.096 366.553 123.683C366.553 119.252 367.405 115.341 369.109 111.951C370.814 108.541 373.219 105.89 376.325 103.996C379.45 102.083 383.143 101.127 387.405 101.127C390.947 101.127 394.081 101.78 396.808 103.087C399.554 104.375 401.742 106.202 403.371 108.57C405 110.918 405.928 113.665 406.155 116.808H396.325C395.928 114.706 394.981 112.954 393.484 111.553C392.007 110.132 390.028 109.422 387.547 109.422C385.445 109.422 383.598 109.99 382.007 111.127C380.416 112.244 379.176 113.854 378.286 115.956C377.414 118.058 376.979 120.577 376.979 123.513C376.979 126.487 377.414 129.043 378.286 131.183C379.157 133.305 380.378 134.943 381.95 136.098C383.541 137.235 385.407 137.803 387.547 137.803C389.062 137.803 390.416 137.519 391.609 136.951C392.822 136.363 393.835 135.521 394.649 134.422C395.464 133.324 396.022 131.988 396.325 130.416H406.155C405.909 133.504 405 136.24 403.428 138.627C401.856 140.994 399.715 142.85 397.007 144.195C394.299 145.521 391.117 146.183 387.462 146.183ZM433.918 146.183C429.543 146.183 425.764 145.274 422.582 143.456C419.42 141.619 416.986 139.024 415.281 135.672C413.577 132.301 412.724 128.333 412.724 123.769C412.724 119.28 413.577 115.341 415.281 111.951C417.005 108.541 419.41 105.89 422.497 103.996C425.584 102.083 429.211 101.127 433.378 101.127C436.067 101.127 438.605 101.562 440.992 102.433C443.397 103.286 445.518 104.612 447.355 106.411C449.211 108.21 450.67 110.502 451.73 113.286C452.791 116.051 453.321 119.346 453.321 123.172V126.326H417.554V119.394H443.463C443.444 117.424 443.018 115.672 442.185 114.138C441.351 112.585 440.187 111.363 438.69 110.473C437.213 109.583 435.49 109.138 433.52 109.138C431.418 109.138 429.571 109.649 427.98 110.672C426.389 111.676 425.149 113.002 424.259 114.649C423.387 116.278 422.942 118.068 422.923 120.019V126.07C422.923 128.608 423.387 130.786 424.315 132.604C425.243 134.403 426.541 135.786 428.207 136.752C429.874 137.699 431.825 138.172 434.06 138.172C435.556 138.172 436.91 137.964 438.122 137.547C439.334 137.112 440.385 136.477 441.276 135.644C442.166 134.81 442.838 133.778 443.293 132.547L452.895 133.627C452.289 136.165 451.134 138.38 449.429 140.274C447.743 142.149 445.584 143.608 442.952 144.649C440.319 145.672 437.308 146.183 433.918 146.183ZM496.51 113.229L487.135 114.252C486.87 113.305 486.406 112.415 485.743 111.581C485.099 110.748 484.228 110.076 483.129 109.564C482.031 109.053 480.686 108.797 479.095 108.797C476.955 108.797 475.156 109.261 473.697 110.189C472.258 111.117 471.548 112.32 471.567 113.797C471.548 115.066 472.012 116.098 472.959 116.894C473.925 117.689 475.516 118.343 477.732 118.854L485.175 120.445C489.304 121.335 492.372 122.746 494.379 124.678C496.406 126.61 497.429 129.138 497.447 132.263C497.429 135.009 496.624 137.433 495.033 139.536C493.461 141.619 491.273 143.248 488.47 144.422C485.667 145.596 482.447 146.183 478.811 146.183C473.47 146.183 469.171 145.066 465.913 142.831C462.656 140.577 460.715 137.443 460.09 133.428L470.118 132.462C470.572 134.432 471.538 135.918 473.016 136.922C474.493 137.926 476.415 138.428 478.783 138.428C481.226 138.428 483.186 137.926 484.663 136.922C486.16 135.918 486.908 134.678 486.908 133.201C486.908 131.951 486.425 130.918 485.459 130.104C484.512 129.29 483.035 128.665 481.027 128.229L473.584 126.666C469.398 125.795 466.302 124.327 464.294 122.263C462.286 120.18 461.292 117.547 461.311 114.365C461.292 111.676 462.021 109.346 463.499 107.377C464.995 105.388 467.069 103.854 469.72 102.774C472.391 101.676 475.468 101.127 478.953 101.127C484.067 101.127 488.091 102.216 491.027 104.394C493.982 106.572 495.809 109.517 496.51 113.229Z" fill="white"/>
<g clip-path="url(#clip0_2_5760)">
<path d="M648.695 108.807L638.534 100.526V87.2812C638.534 85.7898 637.32 84.5762 635.828 84.5762H629.435C627.943 84.5762 626.73 85.7898 626.73 87.2812V90.9052L613.152 79.8395C612.17 79.0393 610.876 78.5984 609.507 78.5984C608.145 78.5984 606.856 79.0366 605.879 79.8326L570.337 108.807C568.722 110.123 568.819 111.269 569.021 111.835C569.221 112.4 569.868 113.348 571.943 113.348H576.81V151.451C576.81 154.17 579.016 156.382 581.728 156.382H597.097C599.787 156.382 601.893 154.216 601.893 151.451V135.826C601.893 134.486 603.124 133.267 604.475 133.267H614.803C616.091 133.267 617.139 134.415 617.139 135.826V151.451C617.139 154.124 619.448 156.382 622.18 156.382H637.304C640.016 156.382 642.222 154.17 642.222 151.451V113.348H647.089C649.164 113.348 649.81 112.4 650.011 111.835C650.213 111.269 650.31 110.123 648.695 108.807Z" fill="white"/>
</g>
</g>
<defs>
<filter id="filter0_i_2_5760" x="0.439453" y="0.452225" width="716.561" height="238.854" filterUnits="userSpaceOnUse" color-interpolation-filters="sRGB">
<feFlood flood-opacity="0" result="BackgroundImageFix"/>
<feBlend mode="normal" in="SourceGraphic" in2="BackgroundImageFix" result="shape"/>
<feColorMatrix in="SourceAlpha" type="matrix" values="0 0 0 0 0 0 0 0 0 0 0 0 0 0 0 0 0 0 127 0" result="hardAlpha"/>
<feOffset dy="-20"/>
<feComposite in2="hardAlpha" operator="arithmetic" k2="-1" k3="1"/>
<feColorMatrix type="matrix" values="0 0 0 0 0 0 0 0 0 0 0 0 0 0 0 0 0 0 0.1 0"/>
<feBlend mode="normal" in2="shape" result="effect1_innerShadow_2_5760"/>
</filter>
<clipPath id="clip0_2_5760">
<rect width="81.2101" height="81.2102" fill="white" transform="translate(568.911 76.8853)"/>
</clipPath>
</defs>
</svg>
