<svg width="717" height="240" viewBox="0 0 717 240" fill="none" xmlns="http://www.w3.org/2000/svg">
<rect y="0.904449" width="716.561" height="238.854" rx="20" fill="#8232E9"/>
<path d="M127.523 97.375V89.8182H172.551V97.375H154.398V148H145.648V97.375H127.523ZM193.872 148.881C189.781 148.881 186.211 147.943 183.162 146.068C180.113 144.193 177.745 141.57 176.06 138.199C174.374 134.828 173.531 130.888 173.531 126.381C173.531 121.854 174.374 117.896 176.06 114.506C177.745 111.116 180.113 108.483 183.162 106.608C186.211 104.733 189.781 103.795 193.872 103.795C197.963 103.795 201.533 104.733 204.582 106.608C207.632 108.483 209.999 111.116 211.685 114.506C213.37 117.896 214.213 121.854 214.213 126.381C214.213 130.888 213.37 134.828 211.685 138.199C209.999 141.57 207.632 144.193 204.582 146.068C201.533 147.943 197.963 148.881 193.872 148.881ZM193.901 141.75C196.552 141.75 198.749 141.049 200.491 139.648C202.234 138.246 203.522 136.381 204.355 134.051C205.207 131.722 205.634 129.155 205.634 126.352C205.634 123.568 205.207 121.011 204.355 118.682C203.522 116.333 202.234 114.449 200.491 113.028C198.749 111.608 196.552 110.898 193.901 110.898C191.23 110.898 189.014 111.608 187.253 113.028C185.51 114.449 184.213 116.333 183.361 118.682C182.527 121.011 182.111 123.568 182.111 126.352C182.111 129.155 182.527 131.722 183.361 134.051C184.213 136.381 185.51 138.246 187.253 139.648C189.014 141.049 191.23 141.75 193.901 141.75ZM223.695 164.364V104.364H231.99V111.438H232.7C233.193 110.528 233.903 109.477 234.831 108.284C235.759 107.091 237.047 106.049 238.695 105.159C240.342 104.25 242.52 103.795 245.229 103.795C248.751 103.795 251.895 104.686 254.661 106.466C257.426 108.246 259.594 110.812 261.166 114.165C262.757 117.517 263.553 121.551 263.553 126.267C263.553 130.983 262.767 135.027 261.195 138.398C259.623 141.75 257.464 144.335 254.717 146.153C251.971 147.953 248.837 148.852 245.314 148.852C242.662 148.852 240.494 148.407 238.808 147.517C237.142 146.627 235.835 145.585 234.888 144.392C233.941 143.199 233.212 142.138 232.7 141.21H232.189V164.364H223.695ZM232.018 126.182C232.018 129.25 232.464 131.939 233.354 134.25C234.244 136.561 235.532 138.369 237.217 139.676C238.903 140.964 240.967 141.608 243.411 141.608C245.948 141.608 248.07 140.936 249.774 139.591C251.479 138.227 252.767 136.381 253.638 134.051C254.528 131.722 254.973 129.098 254.973 126.182C254.973 123.303 254.537 120.718 253.666 118.426C252.814 116.134 251.526 114.326 249.803 113C248.098 111.674 245.967 111.011 243.411 111.011C240.948 111.011 238.865 111.646 237.161 112.915C235.475 114.184 234.196 115.955 233.325 118.227C232.454 120.5 232.018 123.152 232.018 126.182ZM314.384 148.795C310.482 148.795 306.997 148.123 303.929 146.778C300.88 145.434 298.465 143.568 296.685 141.182C294.923 138.777 293.976 135.992 293.844 132.83H302.764C302.878 134.553 303.455 136.049 304.497 137.318C305.558 138.568 306.94 139.534 308.645 140.216C310.349 140.898 312.243 141.239 314.327 141.239C316.618 141.239 318.645 140.841 320.406 140.045C322.187 139.25 323.579 138.142 324.582 136.722C325.586 135.282 326.088 133.625 326.088 131.75C326.088 129.799 325.586 128.085 324.582 126.608C323.598 125.112 322.149 123.937 320.236 123.085C318.342 122.233 316.05 121.807 313.361 121.807H308.446V114.648H313.361C315.52 114.648 317.414 114.259 319.043 113.483C320.69 112.706 321.978 111.627 322.906 110.244C323.834 108.843 324.298 107.205 324.298 105.33C324.298 103.53 323.891 101.968 323.077 100.642C322.281 99.2973 321.145 98.2462 319.668 97.4886C318.209 96.7311 316.486 96.3523 314.497 96.3523C312.603 96.3523 310.832 96.7027 309.185 97.4034C307.556 98.0852 306.23 99.0701 305.207 100.358C304.185 101.627 303.635 103.152 303.56 104.932H295.065C295.16 101.788 296.088 99.0227 297.849 96.6364C299.63 94.25 301.978 92.3845 304.895 91.0398C307.812 89.6951 311.05 89.0227 314.611 89.0227C318.342 89.0227 321.562 89.7519 324.27 91.2102C326.997 92.6496 329.099 94.572 330.577 96.9773C332.073 99.3826 332.812 102.015 332.793 104.875C332.812 108.133 331.902 110.898 330.065 113.17C328.247 115.443 325.823 116.968 322.793 117.744V118.199C326.656 118.786 329.649 120.32 331.77 122.801C333.91 125.282 334.971 128.36 334.952 132.034C334.971 135.235 334.08 138.104 332.281 140.642C330.501 143.18 328.067 145.178 324.98 146.636C321.893 148.076 318.361 148.795 314.384 148.795ZM399.391 105.102C399.088 102.413 397.838 100.33 395.641 98.8523C393.444 97.3561 390.679 96.608 387.345 96.608C384.959 96.608 382.894 96.9867 381.152 97.7443C379.41 98.483 378.055 99.5057 377.089 100.812C376.143 102.1 375.669 103.568 375.669 105.216C375.669 106.598 375.991 107.792 376.635 108.795C377.298 109.799 378.16 110.642 379.22 111.324C380.3 111.987 381.455 112.545 382.686 113C383.917 113.436 385.101 113.795 386.237 114.08L391.919 115.557C393.775 116.011 395.679 116.627 397.629 117.403C399.58 118.18 401.389 119.203 403.055 120.472C404.722 121.741 406.067 123.312 407.089 125.188C408.131 127.062 408.652 129.307 408.652 131.92C408.652 135.216 407.8 138.142 406.095 140.699C404.41 143.256 401.957 145.273 398.737 146.75C395.536 148.227 391.663 148.966 387.118 148.966C382.762 148.966 378.993 148.275 375.811 146.892C372.629 145.509 370.139 143.549 368.339 141.011C366.54 138.455 365.546 135.424 365.357 131.92H374.163C374.334 134.023 375.016 135.775 376.209 137.176C377.421 138.559 378.964 139.591 380.839 140.273C382.733 140.936 384.807 141.267 387.061 141.267C389.542 141.267 391.749 140.879 393.68 140.102C395.631 139.307 397.165 138.208 398.283 136.807C399.4 135.386 399.959 133.729 399.959 131.835C399.959 130.112 399.466 128.701 398.482 127.602C397.516 126.504 396.199 125.595 394.533 124.875C392.885 124.155 391.019 123.521 388.936 122.972L382.061 121.097C377.402 119.828 373.709 117.962 370.982 115.5C368.273 113.038 366.919 109.78 366.919 105.727C366.919 102.375 367.828 99.4489 369.646 96.9489C371.464 94.4489 373.927 92.5076 377.033 91.125C380.139 89.7235 383.643 89.0227 387.544 89.0227C391.483 89.0227 394.959 89.714 397.97 91.0966C401 92.4792 403.387 94.3826 405.129 96.8068C406.872 99.2121 407.781 101.977 407.857 105.102H399.391ZM418.46 164.364V104.364H426.756V111.438H427.466C427.958 110.528 428.669 109.477 429.597 108.284C430.525 107.091 431.813 106.049 433.46 105.159C435.108 104.25 437.286 103.795 439.994 103.795C443.517 103.795 446.661 104.686 449.426 106.466C452.191 108.246 454.36 110.812 455.932 114.165C457.523 117.517 458.318 121.551 458.318 126.267C458.318 130.983 457.532 135.027 455.96 138.398C454.388 141.75 452.229 144.335 449.483 146.153C446.737 147.953 443.602 148.852 440.08 148.852C437.428 148.852 435.259 148.407 433.574 147.517C431.907 146.627 430.6 145.585 429.653 144.392C428.706 143.199 427.977 142.138 427.466 141.21H426.955V164.364H418.46ZM426.784 126.182C426.784 129.25 427.229 131.939 428.119 134.25C429.009 136.561 430.297 138.369 431.983 139.676C433.669 140.964 435.733 141.608 438.176 141.608C440.714 141.608 442.835 140.936 444.54 139.591C446.244 138.227 447.532 136.381 448.403 134.051C449.294 131.722 449.739 129.098 449.739 126.182C449.739 123.303 449.303 120.718 448.432 118.426C447.58 116.134 446.292 114.326 444.568 113C442.864 111.674 440.733 111.011 438.176 111.011C435.714 111.011 433.631 111.646 431.926 112.915C430.241 114.184 428.962 115.955 428.091 118.227C427.22 120.5 426.784 123.152 426.784 126.182ZM486.216 148.881C482.125 148.881 478.555 147.943 475.506 146.068C472.456 144.193 470.089 141.57 468.403 138.199C466.718 134.828 465.875 130.888 465.875 126.381C465.875 121.854 466.718 117.896 468.403 114.506C470.089 111.116 472.456 108.483 475.506 106.608C478.555 104.733 482.125 103.795 486.216 103.795C490.307 103.795 493.877 104.733 496.926 106.608C499.975 108.483 502.343 111.116 504.028 114.506C505.714 117.896 506.557 121.854 506.557 126.381C506.557 130.888 505.714 134.828 504.028 138.199C502.343 141.57 499.975 144.193 496.926 146.068C493.877 147.943 490.307 148.881 486.216 148.881ZM486.244 141.75C488.896 141.75 491.093 141.049 492.835 139.648C494.578 138.246 495.866 136.381 496.699 134.051C497.551 131.722 497.977 129.155 497.977 126.352C497.977 123.568 497.551 121.011 496.699 118.682C495.866 116.333 494.578 114.449 492.835 113.028C491.093 111.608 488.896 110.898 486.244 110.898C483.574 110.898 481.358 111.608 479.597 113.028C477.854 114.449 476.557 116.333 475.705 118.682C474.871 121.011 474.455 123.568 474.455 126.352C474.455 129.155 474.871 131.722 475.705 134.051C476.557 136.381 477.854 138.246 479.597 139.648C481.358 141.049 483.574 141.75 486.244 141.75ZM536.408 104.364V111.182H512.572V104.364H536.408ZM518.964 93.9091H527.459V135.188C527.459 136.835 527.705 138.076 528.197 138.909C528.69 139.723 529.324 140.282 530.101 140.585C530.896 140.869 531.758 141.011 532.686 141.011C533.368 141.011 533.964 140.964 534.476 140.869C534.987 140.775 535.385 140.699 535.669 140.642L537.203 147.659C536.711 147.848 536.01 148.038 535.101 148.227C534.192 148.436 533.055 148.549 531.692 148.568C529.457 148.606 527.374 148.208 525.442 147.375C523.51 146.542 521.947 145.254 520.754 143.511C519.561 141.769 518.964 139.581 518.964 136.949V93.9091ZM577.8 115.017L570.101 116.381C569.779 115.396 569.268 114.458 568.567 113.568C567.885 112.678 566.957 111.949 565.783 111.381C564.608 110.812 563.141 110.528 561.379 110.528C558.974 110.528 556.966 111.068 555.357 112.148C553.747 113.208 552.942 114.581 552.942 116.267C552.942 117.725 553.482 118.9 554.561 119.79C555.641 120.68 557.383 121.409 559.788 121.977L566.72 123.568C570.735 124.496 573.728 125.926 575.697 127.858C577.667 129.79 578.652 132.299 578.652 135.386C578.652 138 577.894 140.33 576.379 142.375C574.883 144.402 572.79 145.992 570.101 147.148C567.43 148.303 564.334 148.881 560.811 148.881C555.925 148.881 551.938 147.839 548.851 145.756C545.764 143.653 543.87 140.67 543.169 136.807L551.379 135.557C551.891 137.697 552.942 139.316 554.533 140.415C556.124 141.494 558.197 142.034 560.754 142.034C563.538 142.034 565.764 141.456 567.43 140.301C569.097 139.127 569.93 137.697 569.93 136.011C569.93 134.648 569.419 133.502 568.396 132.574C567.393 131.646 565.849 130.945 563.766 130.472L556.379 128.852C552.307 127.924 549.296 126.447 547.345 124.42C545.413 122.394 544.447 119.828 544.447 116.722C544.447 114.146 545.167 111.892 546.607 109.96C548.046 108.028 550.035 106.523 552.572 105.443C555.11 104.345 558.018 103.795 561.294 103.795C566.01 103.795 569.722 104.818 572.43 106.864C575.139 108.89 576.929 111.608 577.8 115.017Z" fill="white"/>
</svg>
